<svg width="384" height="155" viewBox="0 0 384 155" fill="none" xmlns="http://www.w3.org/2000/svg">
<path d="M193.232 154.057C297.357 154.057 381.766 148.468 381.766 141.575C381.766 134.682 297.357 129.094 193.232 129.094C89.1071 129.094 4.69727 134.682 4.69727 141.575C4.69727 148.468 89.1071 154.057 193.232 154.057Z" fill="#F4F5F7"/>
<path d="M186.006 4.94141C155.288 4.94141 133.233 24.6489 133.233 70.6329C133.233 122.748 155.288 136.543 186.006 136.543C216.723 136.543 240.092 121.434 240.092 70.6329C240.092 16.3279 216.723 4.94141 186.006 4.94141ZM186.207 119.245C164.932 119.245 153.817 106.763 153.817 70.6665C153.817 38.817 165.387 22.0212 186.662 22.0212C207.938 22.0212 219.508 33.0537 219.508 70.6665C219.508 105.853 207.483 119.245 186.207 119.245Z" fill="#172B4D"/>
<path d="M114.84 100.197H102.139V62.7981C102.139 60.8116 101.35 58.9066 99.9455 57.5019C98.5409 56.0973 96.6358 55.3082 94.6494 55.3082H91.6734C90.6898 55.3082 89.7159 55.5019 88.8072 55.8783C87.8984 56.2547 87.0728 56.8064 86.3773 57.5019C85.6818 58.1974 85.1301 59.0231 84.7537 59.9318C84.3773 60.8405 84.1835 61.8145 84.1835 62.7981V100.197H48.3602C47.6232 100.197 46.8987 100.007 46.2571 99.6444C45.6154 99.282 45.0783 98.7598 44.698 98.1286C44.3176 97.4974 44.1068 96.7786 44.086 96.0419C44.0653 95.3052 44.2353 94.5757 44.5796 93.9241L82.4947 22.1629C82.9674 21.2682 83.2539 20.287 83.3369 19.2786C83.4199 18.2701 83.2978 17.2553 82.9777 16.2953C82.6577 15.3354 82.1465 14.4502 81.475 13.6933C80.8035 12.9364 79.9855 12.3234 79.0705 11.8913L76.8323 10.8344C75.0944 10.0137 73.1074 9.89248 71.2826 10.4959C69.4578 11.0993 67.9348 12.3811 67.0288 14.0761L20.7863 100.581C19.9989 102.054 19.5869 103.699 19.5869 105.369C19.5869 106.703 19.8496 108.024 20.36 109.256C20.8704 110.488 21.6185 111.608 22.5616 112.551C23.5047 113.494 24.6243 114.242 25.8565 114.752C27.0887 115.263 28.4093 115.525 29.7431 115.525H84.1835V139.174C84.1835 140.353 84.4158 141.521 84.8669 142.61C85.3181 143.699 85.9794 144.689 86.8131 145.523C87.6468 146.356 88.6365 147.018 89.7257 147.469C90.8149 147.92 91.9824 148.152 93.1614 148.152H93.1614C94.3404 148.152 95.5078 147.92 96.597 147.469C97.6863 147.018 98.676 146.356 99.5097 145.523C100.343 144.689 101.005 143.699 101.456 142.61C101.907 141.521 102.139 140.353 102.139 139.174V115.525H114.84C116.872 115.525 118.822 114.718 120.259 113.281C121.696 111.843 122.504 109.894 122.504 107.861C122.504 105.829 121.696 103.879 120.259 102.442C118.822 101.005 116.872 100.197 114.84 100.197Z" fill="#0050C8"/>
<path d="M350.015 100.197H337.315V62.7981C337.315 60.8116 336.526 58.9066 335.121 57.5019C333.717 56.0973 331.812 55.3082 329.825 55.3082H326.849C325.866 55.3082 324.892 55.5019 323.983 55.8783C323.074 56.2547 322.249 56.8064 321.553 57.5019C320.858 58.1974 320.306 59.0231 319.929 59.9318C319.553 60.8405 319.359 61.8145 319.359 62.7981V100.197H283.536C282.799 100.197 282.075 100.007 281.433 99.6444C280.791 99.282 280.254 98.7598 279.874 98.1286C279.493 97.4974 279.283 96.7786 279.262 96.0419C279.241 95.3052 279.411 94.5757 279.755 93.9241L317.67 22.1629C318.143 21.2682 318.43 20.287 318.513 19.2786C318.596 18.2701 318.474 17.2553 318.154 16.2953C317.834 15.3354 317.322 14.4502 316.651 13.6933C315.979 12.9364 315.161 12.3234 314.246 11.8913L312.008 10.8344C310.27 10.0137 308.283 9.89248 306.458 10.4959C304.634 11.0993 303.111 12.3811 302.205 14.0761L255.962 100.581C255.175 102.054 254.763 103.699 254.763 105.369C254.763 108.063 255.833 110.646 257.737 112.551C259.642 114.455 262.225 115.525 264.919 115.525H319.359V139.174C319.359 141.555 320.305 143.839 321.989 145.523C323.673 147.206 325.956 148.152 328.337 148.152C330.718 148.152 333.002 147.206 334.685 145.523C336.369 143.839 337.315 141.555 337.315 139.174V115.525H350.015C352.048 115.525 353.997 114.718 355.435 113.281C356.872 111.843 357.679 109.894 357.679 107.861C357.679 105.829 356.872 103.879 355.435 102.442C353.997 101.005 352.048 100.197 350.015 100.197Z" fill="#0050C8"/>
<path d="M118.343 95.8146H105.643V58.4153C105.643 57.4317 105.449 56.4577 105.073 55.549C104.697 54.6403 104.145 53.8146 103.449 53.1191C102.754 52.4236 101.928 51.8719 101.02 51.4955C100.111 51.1191 99.1368 50.9254 98.1533 50.9254H95.1773C93.1909 50.9254 91.2858 51.7145 89.8812 53.1191C88.4766 54.5237 87.6874 56.4288 87.6874 58.4153V95.8146H51.8641C51.1271 95.8146 50.4027 95.6241 49.761 95.2616C49.1193 94.8991 48.5823 94.377 48.2019 93.7458C47.8215 93.1146 47.6107 92.3957 47.5899 91.6591C47.5692 90.9224 47.7392 90.1929 48.0835 89.5413L85.9986 17.7801C86.4713 16.8854 86.7578 15.9042 86.8408 14.8958C86.9239 13.8873 86.8017 12.8725 86.4817 11.9125C86.1617 10.9526 85.6505 10.0674 84.9789 9.31049C84.3074 8.55356 83.4894 7.94056 82.5744 7.50848L80.3362 6.45155C78.5983 5.63085 76.6113 5.50967 74.7865 6.11307C72.9617 6.71647 71.4387 7.99827 70.5327 9.69326L24.2902 96.1985C23.5028 97.6716 23.0908 99.3161 23.0908 100.986V100.986C23.0908 103.68 24.1608 106.263 26.0655 108.168C27.9701 110.073 30.5534 111.143 33.247 111.143H87.6874V134.792C87.6874 135.97 87.9197 137.138 88.3708 138.227C88.822 139.316 89.4833 140.306 90.317 141.14C91.1507 141.973 92.1404 142.635 93.2296 143.086C94.3188 143.537 95.4863 143.769 96.6653 143.769H96.6653C99.0463 143.769 101.33 142.823 103.014 141.14C104.697 139.456 105.643 137.173 105.643 134.792V111.143H118.343C119.35 111.143 120.347 110.944 121.276 110.559C122.206 110.174 123.051 109.61 123.763 108.898C124.474 108.186 125.039 107.341 125.424 106.411C125.809 105.482 126.007 104.485 126.007 103.479V103.479C126.007 102.472 125.809 101.476 125.424 100.546C125.039 99.6158 124.474 98.771 123.763 98.0593C123.051 97.3476 122.206 96.7831 121.276 96.398C120.347 96.0128 119.35 95.8146 118.343 95.8146V95.8146Z" stroke="#091E42" stroke-width="0.357412" stroke-miterlimit="10"/>
<path d="M356.584 95.8146H343.884V58.4153C343.884 56.4288 343.095 54.5237 341.69 53.1191C340.285 51.7145 338.38 50.9254 336.394 50.9254H333.418C332.434 50.9254 331.461 51.1191 330.552 51.4955C329.643 51.8719 328.817 52.4236 328.122 53.1191C327.426 53.8146 326.875 54.6403 326.498 55.549C326.122 56.4577 325.928 57.4317 325.928 58.4153V95.8146H290.105C289.368 95.8146 288.643 95.6241 288.002 95.2616C287.36 94.8991 286.823 94.377 286.443 93.7458C286.062 93.1146 285.851 92.3957 285.831 91.6591C285.81 90.9224 285.98 90.1929 286.324 89.5413L324.239 17.7801C324.712 16.8854 324.999 15.9042 325.082 14.8958C325.165 13.8873 325.042 12.8725 324.722 11.9125C324.402 10.9526 323.891 10.0674 323.22 9.31049C322.548 8.55356 321.73 7.94056 320.815 7.50848L318.577 6.45155C316.839 5.63085 314.852 5.50967 313.027 6.11307C311.202 6.71647 309.679 7.99827 308.773 9.69326L262.531 96.1985C261.744 97.6716 261.332 99.3161 261.332 100.986C261.332 103.68 262.402 106.263 264.306 108.168C266.211 110.073 268.794 111.143 271.488 111.143H325.928V134.792C325.928 137.173 326.874 139.456 328.558 141.14C330.241 142.823 332.525 143.769 334.906 143.769V143.769C337.287 143.769 339.571 142.823 341.254 141.14C342.938 139.456 343.884 137.173 343.884 134.792V111.143H356.584C357.591 111.143 358.587 110.944 359.517 110.559C360.447 110.174 361.292 109.61 362.003 108.898C362.715 108.186 363.28 107.341 363.665 106.411C364.05 105.482 364.248 104.485 364.248 103.479V103.479C364.248 101.446 363.441 99.4966 362.003 98.0593C360.566 96.622 358.617 95.8146 356.584 95.8146V95.8146Z" stroke="#091E42" stroke-width="0.357412" stroke-miterlimit="10"/>
<path d="M193.013 1C162.295 1 140.241 20.7074 140.241 66.6915C140.241 118.807 162.295 132.602 193.013 132.602C223.73 132.602 247.099 117.493 247.099 66.6915C247.099 12.3865 223.73 1 193.013 1ZM193.215 115.303C171.939 115.303 160.824 102.821 160.824 66.7251C160.824 34.8755 172.394 18.0798 193.67 18.0798C214.945 18.0798 226.516 29.1123 226.516 66.7251C226.516 101.911 214.49 115.303 193.215 115.303V115.303Z" stroke="#091E42" stroke-width="0.357412" stroke-miterlimit="10"/>
<path d="M359.864 95.1992C360.947 95.5928 362.106 95.7295 363.251 95.5986C364.396 95.4678 365.494 95.0728 366.46 94.445C367.426 93.8171 368.233 92.9735 368.817 91.9806C369.401 90.9877 369.747 89.8727 369.827 88.7234C369.906 87.5742 369.718 86.4221 369.277 85.358C368.835 84.2939 368.153 83.3469 367.283 82.5915C366.413 81.8362 365.38 81.2932 364.264 81.0054C363.149 80.7176 361.982 80.6928 360.855 80.933L361.041 84.7617L359.23 81.4805C357.452 82.3158 356.079 83.8228 355.411 85.6703C355.174 86.3174 355.03 86.9949 354.983 87.6824C354.869 89.2957 355.284 90.9022 356.165 92.2586C357.045 93.615 358.344 94.6473 359.864 95.1992Z" fill="#00875A"/>
<path d="M368.828 139.612C368.188 136.356 370.959 133.47 373.696 131.593C376.433 129.717 379.631 127.873 380.564 124.689C381.907 120.113 377.909 115.922 374.797 112.308C372.489 109.626 370.507 106.68 368.892 103.531C368.244 102.268 367.649 100.948 367.479 99.5399C367.234 97.5114 367.886 95.4928 368.542 93.5579C370.729 87.1122 373.068 80.7205 375.558 74.3828" stroke="#091E42" stroke-width="0.357412" stroke-miterlimit="10"/>
<path d="M360.171 94.2148C361.253 94.6084 362.413 94.7451 363.557 94.6143C364.702 94.4834 365.8 94.0884 366.766 93.4606C367.732 92.8327 368.539 91.9891 369.123 90.9962C369.707 90.0033 370.053 88.8883 370.133 87.7391C370.213 86.5898 370.024 85.4377 369.583 84.3736C369.142 83.3095 368.459 82.3625 367.589 81.6071C366.719 80.8518 365.686 80.3088 364.57 80.021C363.455 79.7332 362.288 79.7084 361.161 79.9486L361.347 83.7773L359.536 80.4961C357.758 81.3314 356.385 82.8384 355.717 84.6859C355.481 85.333 355.336 86.0105 355.29 86.6981C355.175 88.3113 355.59 89.9178 356.471 91.2742C357.351 92.6306 358.65 93.663 360.171 94.2148V94.2148Z" stroke="#091E42" stroke-width="0.357412" stroke-miterlimit="10"/>
<path d="M367.918 73.0562C368.343 71.8838 369.056 70.8372 369.991 70.0129C370.927 69.1886 372.055 68.613 373.272 68.3392L373.884 71.979L375.02 68.1562C376.596 68.1796 378.125 68.7034 379.384 69.6521C380.644 70.6007 381.569 71.925 382.027 73.4339C382.485 74.9427 382.451 76.558 381.931 78.0465C381.411 79.535 380.431 80.8198 379.133 81.7152C377.835 82.6106 376.287 83.0704 374.71 83.0282C373.134 82.986 371.612 82.444 370.364 81.4804C369.116 80.5169 368.206 79.1816 367.767 77.6674C367.327 76.1532 367.38 74.5384 367.918 73.0562H367.918Z" fill="#00875A"/>
<path d="M368.326 71.7437C368.751 70.5713 369.464 69.5248 370.4 68.7004C371.336 67.8761 372.464 67.3005 373.68 67.0267L374.293 70.6665L375.428 66.8438C377.005 66.8671 378.533 67.3909 379.793 68.3396C381.052 69.2882 381.978 70.6125 382.435 72.1214C382.893 73.6302 382.86 75.2455 382.34 76.734C381.819 78.2225 380.84 79.5072 379.542 80.4027C378.244 81.2981 376.695 81.7579 375.119 81.7157C373.543 81.6736 372.021 81.1315 370.773 80.168C369.525 79.2044 368.615 77.8691 368.175 76.3549C367.736 74.8407 367.789 73.2259 368.326 71.7437H368.326Z" stroke="#091E42" stroke-width="0.357412" stroke-miterlimit="10"/>
<path d="M373.491 112.377C375.208 113 377.095 112.969 378.79 112.291C380.486 111.612 381.873 110.334 382.687 108.698C383.5 107.063 383.684 105.185 383.202 103.424C382.72 101.662 381.607 100.139 380.074 99.1449L379.202 102.083L378.583 98.3999C378.577 98.397 378.571 98.3946 378.564 98.3927C377.646 98.0589 376.671 97.9094 375.695 97.9526C374.718 97.9958 373.76 98.231 372.875 98.6446C371.99 99.0583 371.195 99.6423 370.535 100.363C369.876 101.084 369.365 101.928 369.031 102.847C368.698 103.766 368.549 104.741 368.593 105.717C368.637 106.693 368.872 107.651 369.287 108.536C369.701 109.421 370.285 110.216 371.007 110.875C371.728 111.534 372.572 112.045 373.491 112.377H373.491Z" fill="#00875A"/>
<path d="M373.845 111.049C375.562 111.672 377.448 111.641 379.144 110.963C380.84 110.284 382.227 109.005 383.04 107.37C383.854 105.735 384.037 103.857 383.555 102.095C383.074 100.334 381.96 98.8106 380.428 97.8168L379.555 100.754L378.937 97.0717C378.931 97.0689 378.924 97.0665 378.918 97.0646C377.999 96.7308 377.024 96.5812 376.048 96.6245C375.072 96.6677 374.114 96.9029 373.228 97.3165C372.343 97.7302 371.548 98.3142 370.889 99.0353C370.229 99.7563 369.718 100.6 369.385 101.519C369.052 102.437 368.903 103.413 368.946 104.389C368.99 105.365 369.226 106.323 369.64 107.208C370.054 108.093 370.639 108.888 371.36 109.547C372.082 110.206 372.926 110.716 373.845 111.049H373.845Z" stroke="#091E42" stroke-width="0.357412" stroke-miterlimit="10"/>
<path d="M365.748 124.733C366.043 126.413 366.907 127.94 368.194 129.059C369.482 130.178 371.115 130.819 372.82 130.877C374.524 130.934 376.197 130.404 377.557 129.374C378.917 128.345 379.882 126.879 380.289 125.223C380.697 123.567 380.523 121.821 379.796 120.278C379.069 118.735 377.833 117.489 376.297 116.748C374.76 116.008 373.016 115.819 371.356 116.212C369.696 116.605 368.222 117.557 367.181 118.908L370.495 123.897L365.967 121.249C365.616 122.376 365.54 123.571 365.748 124.733Z" fill="#00875A"/>
<path d="M366.054 123.745C366.349 125.425 367.213 126.952 368.5 128.071C369.788 129.189 371.421 129.831 373.126 129.888C374.831 129.946 376.503 129.415 377.863 128.386C379.223 127.357 380.188 125.891 380.595 124.235C381.003 122.578 380.829 120.832 380.102 119.289C379.375 117.746 378.139 116.5 376.603 115.76C375.066 115.02 373.322 114.83 371.662 115.224C370.002 115.617 368.528 116.569 367.487 117.92L370.801 122.908L366.273 120.261C365.922 121.388 365.847 122.583 366.054 123.745V123.745Z" stroke="#091E42" stroke-width="0.357412" stroke-miterlimit="10"/>
<path d="M3.21911 113.324C3.93046 113.583 4.69216 113.673 5.44416 113.587C6.19617 113.501 6.91792 113.241 7.55254 112.829C8.18715 112.416 8.71728 111.862 9.10114 111.21C9.485 110.557 9.71209 109.825 9.76452 109.07C9.81695 108.315 9.69329 107.558 9.40327 106.858C9.11326 106.159 8.66482 105.537 8.09331 105.041C7.5218 104.545 6.84283 104.188 6.10993 103.999C5.37703 103.81 4.61022 103.793 3.86995 103.951L3.99228 106.467L2.80215 104.311C1.6341 104.86 0.731735 105.85 0.29335 107.064C0.13766 107.489 0.043013 107.934 0.0122308 108.386C-0.062891 109.446 0.209531 110.501 0.788214 111.392C1.3669 112.283 2.2203 112.962 3.21911 113.324Z" fill="#00875A"/>
<path d="M9.10771 142.498C8.68759 140.358 10.5081 138.462 12.3062 137.229C14.1044 135.996 16.2055 134.785 16.8191 132.693C17.7008 129.686 15.0743 126.933 13.03 124.558C11.5133 122.796 10.2108 120.86 9.14984 118.791C8.68856 117.979 8.37437 117.091 8.22175 116.169C8.06056 114.837 8.48874 113.51 8.9201 112.239C10.3571 108.004 11.8935 103.805 13.5294 99.6406" stroke="#091E42" stroke-width="0.357412" stroke-miterlimit="10"/>
<path d="M3.42028 112.676C4.13164 112.934 4.89333 113.024 5.64534 112.938C6.39734 112.852 7.11909 112.593 7.7537 112.18C8.38832 111.768 8.91845 111.214 9.3023 110.561C9.68616 109.909 9.91325 109.176 9.96568 108.421C10.0181 107.666 9.89445 106.909 9.60444 106.21C9.31443 105.511 8.86599 104.889 8.29448 104.392C7.72297 103.896 7.044 103.539 6.3111 103.35C5.5782 103.161 4.8114 103.145 4.07113 103.303L4.19346 105.818L3.00332 103.662C1.83527 104.211 0.932907 105.201 0.494522 106.415C0.338834 106.84 0.244188 107.285 0.213404 107.737C0.138277 108.797 0.410698 109.853 0.989382 110.744C1.56807 111.635 2.42147 112.313 3.42028 112.676V112.676Z" stroke="#091E42" stroke-width="0.357412" stroke-miterlimit="10"/>
<path d="M8.51034 98.774C8.78951 98.0038 9.25805 97.3161 9.8728 96.7745C10.4875 96.2329 11.2287 95.8548 12.028 95.6749L12.4304 98.0663L13.1765 95.5547C14.2123 95.5701 15.2165 95.9142 16.044 96.5375C16.8715 97.1607 17.4795 98.0308 17.7803 99.0222C18.081 100.014 18.0589 101.075 17.7172 102.053C17.3755 103.031 16.7318 103.875 15.8791 104.463C15.0264 105.051 14.0088 105.354 12.9732 105.326C11.9377 105.298 10.9377 104.942 10.1177 104.309C9.29766 103.676 8.70006 102.799 8.41116 101.804C8.12225 100.809 8.15699 99.7479 8.51034 98.774Z" fill="#00875A"/>
<path d="M8.77841 97.9107C9.05758 97.1405 9.52612 96.4529 10.1409 95.9113C10.7556 95.3697 11.4968 94.9915 12.2961 94.8116L12.6985 97.203L13.4445 94.6914C14.4804 94.7068 15.4845 95.0509 16.312 95.6742C17.1395 96.2974 17.7476 97.1676 18.0483 98.1589C18.3491 99.1502 18.327 100.212 17.9853 101.189C17.6436 102.167 16.9999 103.012 16.1472 103.6C15.2945 104.188 14.2769 104.49 13.2413 104.463C12.2057 104.435 11.2057 104.079 10.3857 103.446C9.56572 102.813 8.96813 101.935 8.67922 100.94C8.39032 99.9455 8.42505 98.8846 8.77841 97.9107V97.9107Z" stroke="#091E42" stroke-width="0.357412" stroke-miterlimit="10"/>
<path d="M12.1723 124.607C13.3004 125.017 14.5397 124.996 15.6539 124.551C16.7681 124.105 17.6793 123.265 18.2138 122.19C18.7484 121.116 18.8688 119.882 18.5523 118.725C18.2358 117.567 17.5044 116.566 16.4975 115.913L15.9243 117.844L15.5178 115.424C15.5138 115.422 15.5096 115.42 15.5053 115.419C14.9019 115.2 14.2612 115.101 13.6197 115.13C12.9782 115.158 12.3486 115.313 11.7669 115.584C11.1851 115.856 10.6626 116.24 10.2293 116.714C9.7959 117.187 9.46014 117.742 9.24118 118.345C9.02222 118.949 8.92435 119.59 8.95317 120.231C8.98199 120.873 9.13692 121.502 9.40913 122.084C9.68134 122.665 10.0655 123.187 10.5396 123.621C11.0137 124.054 11.5685 124.389 12.1723 124.607Z" fill="#00875A"/>
<path d="M12.4045 123.735C13.5327 124.144 14.7719 124.124 15.8861 123.678C17.0003 123.232 17.9116 122.392 18.4461 121.318C18.9806 120.243 19.1011 119.01 18.7846 117.852C18.4681 116.695 17.7367 115.694 16.7298 115.041L16.1565 116.971L15.75 114.552C15.746 114.55 15.7419 114.548 15.7376 114.547C15.1343 114.328 14.4938 114.23 13.8527 114.259C13.2116 114.287 12.5824 114.442 12.001 114.714C10.8269 115.263 9.91901 116.256 9.47702 117.474C9.03503 118.693 9.09515 120.037 9.64417 121.211C10.1932 122.385 11.1861 123.293 12.4045 123.735V123.735Z" stroke="#091E42" stroke-width="0.357412" stroke-miterlimit="10"/>
<path d="M7.08338 132.722C7.27735 133.826 7.84494 134.83 8.69095 135.564C9.53695 136.299 10.6099 136.721 11.7299 136.759C12.8499 136.797 13.9489 136.448 14.8424 135.772C15.7359 135.095 16.3697 134.132 16.6375 133.044C16.9053 131.956 16.7908 130.809 16.3132 129.795C15.8355 128.781 15.0239 127.963 14.0143 127.476C13.0046 126.99 11.8585 126.865 10.7681 127.124C9.67763 127.382 8.70918 128.008 8.02516 128.895L10.2026 132.173L7.22739 130.433C6.9967 131.174 6.94731 131.959 7.08338 132.722Z" fill="#00875A"/>
<path d="M7.28553 132.074C7.4795 133.178 8.04708 134.181 8.89309 134.916C9.7391 135.651 10.8121 136.073 11.9321 136.11C13.0521 136.148 14.151 135.8 15.0445 135.123C15.9381 134.447 16.5719 133.484 16.8397 132.396C17.1074 131.307 16.9929 130.16 16.5153 129.147C16.0377 128.133 15.226 127.314 14.2164 126.828C13.2068 126.341 12.0607 126.217 10.9702 126.475C9.87977 126.734 8.91133 127.359 8.22731 128.247L10.4048 131.524L7.42954 129.785C7.19885 130.525 7.14946 131.31 7.28553 132.074V132.074Z" stroke="#091E42" stroke-width="0.357412" stroke-miterlimit="10"/>
<path d="M171.895 67.1714C175.251 67.1714 177.971 63.651 177.971 59.3084C177.971 54.9657 175.251 51.4453 171.895 51.4453C168.539 51.4453 165.819 54.9657 165.819 59.3084C165.819 63.651 168.539 67.1714 171.895 67.1714Z" fill="#172B4D"/>
<path d="M204.955 67.3472C208.311 67.3472 211.031 63.8268 211.031 59.4841C211.031 55.1415 208.311 51.6211 204.955 51.6211C201.599 51.6211 198.879 55.1415 198.879 59.4841C198.879 63.8268 201.599 67.3472 204.955 67.3472Z" fill="#172B4D"/>
<path d="M200.309 82.7148C200.309 86.2674 195.348 89.1482 189.229 89.1482C183.11 89.1482 178.149 86.2674 178.149 82.7148C178.149 79.6374 181.87 77.0641 186.842 76.435C187.633 76.3306 188.431 76.2793 189.229 76.2813C190.567 76.277 191.901 76.4209 193.207 76.7102C197.36 77.6359 200.309 79.977 200.309 82.7148Z" fill="#172B4D"/>
<path d="M173.325 65.3824C176.68 65.3824 179.401 61.8619 179.401 57.5193C179.401 53.1767 176.68 49.6562 173.325 49.6562C169.969 49.6562 167.249 53.1767 167.249 57.5193C167.249 61.8619 169.969 65.3824 173.325 65.3824Z" stroke="#091E42" stroke-width="0.357412" stroke-miterlimit="10"/>
<path d="M206.386 65.566C209.741 65.566 212.462 62.0455 212.462 57.7029C212.462 53.3603 209.741 49.8398 206.386 49.8398C203.03 49.8398 200.31 53.3603 200.31 57.7029C200.31 62.0455 203.03 65.566 206.386 65.566Z" stroke="#091E42" stroke-width="0.357412" stroke-miterlimit="10"/>
<path d="M190.659 87.3629C196.779 87.3629 201.739 84.4826 201.739 80.9295C201.739 77.3764 196.779 74.4961 190.659 74.4961C184.54 74.4961 179.58 77.3764 179.58 80.9295C179.58 84.4826 184.54 87.3629 190.659 87.3629Z" stroke="#091E42" stroke-width="0.357412" stroke-miterlimit="10"/>
<path d="M193.34 77.2454C193.343 77.6948 193.174 78.1284 192.868 78.4577C192.724 78.6154 192.548 78.7416 192.352 78.8282C192.157 78.9148 191.945 78.96 191.732 78.9609H188.157C187.717 78.9456 187.301 78.7565 186.999 78.4351C186.698 78.1136 186.536 77.6858 186.549 77.2454C186.547 76.8969 186.649 76.5558 186.842 76.2656C187.633 76.1543 188.431 76.0995 189.23 76.1017C190.569 76.0972 191.904 76.2508 193.208 76.5592C193.296 76.7771 193.341 77.0102 193.34 77.2454Z" fill="white"/>
<path d="M173.325 57.1601C174.312 57.1601 175.112 56.36 175.112 55.373C175.112 54.386 174.312 53.5859 173.325 53.5859C172.338 53.5859 171.538 54.386 171.538 55.373C171.538 56.36 172.338 57.1601 173.325 57.1601Z" fill="white"/>
<path d="M206.564 57.1601C207.551 57.1601 208.351 56.36 208.351 55.373C208.351 54.386 207.551 53.5859 206.564 53.5859C205.577 53.5859 204.777 54.386 204.777 55.373C204.777 56.36 205.577 57.1601 206.564 57.1601Z" fill="white"/>
<path opacity="0.3" d="M208.351 73.9608C209.337 73.9608 210.138 73.1607 210.138 72.1738C210.138 71.1868 209.337 70.3867 208.351 70.3867C207.364 70.3867 206.563 71.1868 206.563 72.1738C206.563 73.1607 207.364 73.9608 208.351 73.9608Z" fill="#0050C8"/>
<path opacity="0.3" d="M164.747 73.9608C165.733 73.9608 166.534 73.1607 166.534 72.1738C166.534 71.1868 165.733 70.3867 164.747 70.3867C163.76 70.3867 162.959 71.1868 162.959 72.1738C162.959 73.1607 163.76 73.9608 164.747 73.9608Z" fill="#0050C8"/>
</svg>
